# xmcd
# 
# Track frame offsets:
#     150
#     12968
#     21943
#     34480
#     47733
#     58333
#     71685
#     85783
#     95938
#     107863
#     122113
#     136741
#     146511
#     159631
#     171713
# 
# Disc length: 2434
# 
# Revision: 0
# Processed by: cddbd v1.5.2PL0 Copyright (c) Steve Scherf et al.
# Submitted via: fre:ac v1.0.31
# 
DISCID=e109800f
DTITLE=Various Artist - ハイ・ヌーン カントリー and ウエスタン・ベスト [Disc 1]
DYEAR=2010
DGENRE=Country
TTITLE0=Tex Ritter - High Noon
TTITLE1=Wanda Jackson - Jambalaya
TTITLE2=Ferlin Husky - I Can't Stop Loving You
TTITLE3=Ferlin Husky - I Really Don't Want To Know
TTITLE4=Faron Young - Tenessee Waltz
TTITLE5=Hank Thompson - Wildwood Flower
TTITLE6=Merle Haggard - Branded Man
TTITLE7=Rose Maddox - Blue Moon Of Kentucky
TTITLE8=Wanda Jackson - Silver Threads and Golden Needles
TTITLE9=Hank Thompson - San Antonio Rose
TTITLE10=Glen Campbell - Rhinestone Cowboy
TTITLE11=Wanda Jackson - Seven Lonely Days
TTITLE12=Crystal Gayle - The Wayward Wind
TTITLE13=Anne Murray - Walk Right Back
TTITLE14=Willie Nelson - Hello Walls
EXTD=
EXTT0=
EXTT1=
EXTT2=
EXTT3=
EXTT4=
EXTT5=
EXTT6=
EXTT7=
EXTT8=
EXTT9=
EXTT10=
EXTT11=
EXTT12=
EXTT13=
EXTT14=
PLAYORDER=
